<?xml version="1.0" encoding="utf-8"?>
<!-- Generator: Adobe Illustrator 18.1.1, SVG Export Plug-In . SVG Version: 6.00 Build 0)  -->
<svg version="1.1" id="Layer_1" xmlns="http://www.w3.org/2000/svg" xmlns:xlink="http://www.w3.org/1999/xlink" x="0px" y="0px"
     width="218px" height="25px" viewBox="0 0 218 25" enable-background="new 0 0 218 25" xml:space="preserve">
<g>
    <path fill="#FFFFFF" d="M30.1,19.3V4.7h10.4v2.8h-7.3v3.1h7.1v2.8h-7.1v6.1h-3.1V19.3z"/>
    <path fill="#FFFFFF" d="M41.9,14c0-3.1,2.3-5.6,5.5-5.6c3.2,0,5.3,2.4,5.3,5.9v0.6h-7.9c0.2,1.3,1.3,2.5,3.1,2.5
        c0.9,0,2.2-0.4,2.8-1.1l1.2,1.8c-1.1,1-2.7,1.5-4.4,1.5C44.4,19.6,41.9,17.4,41.9,14z M47.4,10.7c-1.7,0-2.5,1.3-2.6,2.4H50
        C50,12,49.3,10.7,47.4,10.7z"/>
    <path fill="#FFFFFF" d="M62.1,19.3V18c-0.8,1.1-2,1.6-3.3,1.6c-2.7,0-4.7-2-4.7-5.6c0-3.5,2-5.6,4.7-5.6c1.3,0,2.4,0.6,3.3,1.6V4.7
        h2.8v14.7h-2.8V19.3z M62.1,15.9v-3.8c-0.5-0.7-1.5-1.2-2.4-1.2c-1.6,0-2.7,1.3-2.7,3.1s1.1,3.1,2.7,3.1
        C60.6,17.1,61.6,16.6,62.1,15.9z"/>
    <path fill="#FFFFFF" d="M67.7,19.3V4.7h7.7c2.8,0,4.2,1.8,4.2,3.7c0,1.8-1.1,3.1-2.5,3.4c1.6,0.2,2.8,1.8,2.8,3.6
        c0,2.2-1.5,4-4.3,4h-7.9V19.3z M76.5,8.9c0-0.9-0.7-1.6-1.7-1.6h-3.9v3.2h3.9C75.8,10.5,76.5,9.9,76.5,8.9z M76.8,14.9
        c0-0.9-0.7-1.7-1.9-1.7h-4v3.4h4C76.1,16.6,76.8,16,76.8,14.9z"/>
    <path fill="#FFFFFF" d="M81.6,14c0-3,2.1-5.6,5.6-5.6s5.6,2.6,5.6,5.6s-2.1,5.6-5.6,5.6S81.6,17,81.6,14z M89.9,14
        c0-1.7-1-3.1-2.7-3.1c-1.7,0-2.7,1.4-2.7,3.1s1,3.1,2.7,3.1C88.9,17.1,89.9,15.7,89.9,14z"/>
    <path fill="#FFFFFF" d="M94.2,14c0-3,2.1-5.6,5.6-5.6s5.6,2.6,5.6,5.6s-2.1,5.6-5.6,5.6C96.3,19.6,94.2,17,94.2,14z M102.5,14
        c0-1.7-1-3.1-2.7-3.1s-2.7,1.4-2.7,3.1s1,3.1,2.7,3.1S102.5,15.7,102.5,14z"/>
    <path fill="#FFFFFF" d="M107.1,19.3v-2.1l4.8-6.1h-4.8V8.7h8.6v2l-4.9,6.2h5v2.4H107.1z"/>
    <path fill="#FFFFFF" d="M117.4,12c0-4.4,3.2-7.6,7.7-7.6c4.4,0,7.7,3.2,7.7,7.6s-3.2,7.6-7.7,7.6C120.6,19.6,117.4,16.4,117.4,12z
         M129.5,12c0-2.8-1.8-4.8-4.5-4.8s-4.4,2.1-4.4,4.8s1.7,4.8,4.4,4.8S129.5,14.7,129.5,12z"/>
    <path fill="#FFFFFF" d="M137.7,18v5.4h-2.8V8.7h2.8V10c0.8-1,2-1.6,3.3-1.6c2.7,0,4.7,2,4.7,5.6s-2,5.6-4.7,5.6
        C139.7,19.6,138.5,19.1,137.7,18z M142.8,14c0-1.8-1.1-3.1-2.7-3.1c-0.9,0-1.9,0.5-2.4,1.2v3.8c0.5,0.7,1.5,1.2,2.4,1.2
        C141.7,17.1,142.8,15.9,142.8,14z"/>
    <path fill="#FFFFFF" d="M150.5,18v5.4h-2.8V8.7h2.8V10c0.8-1,2-1.6,3.3-1.6c2.7,0,4.7,2,4.7,5.6s-2,5.6-4.7,5.6
        C152.5,19.6,151.4,19.1,150.5,18z M155.6,14c0-1.8-1.1-3.1-2.7-3.1c-0.9,0-1.9,0.5-2.4,1.2v3.8c0.5,0.7,1.5,1.2,2.4,1.2
        C154.5,17.1,155.6,15.9,155.6,14z"/>
    <path fill="#FFFFFF" d="M159.6,17.9l1.2-2c0.8,0.7,2.4,1.5,3.7,1.5c1.2,0,1.8-0.5,1.8-1.1c0-0.7-1-0.9-2.1-1.1
        c-1.8-0.4-4.2-0.8-4.2-3.4c0-1.8,1.6-3.3,4.4-3.3c1.8,0,3.2,0.6,4.3,1.5l-1.1,1.9c-0.6-0.7-1.8-1.2-3.1-1.2c-1,0-1.7,0.5-1.7,1.1
        s0.8,0.8,2,1c1.8,0.4,4.3,0.9,4.3,3.5c0,1.9-1.7,3.4-4.6,3.4C162.5,19.6,160.7,19,159.6,17.9z"/>
    <path fill="#FFFFFF" d="M170.7,17.8c0-1,0.8-1.8,1.8-1.8s1.8,0.8,1.8,1.8s-0.8,1.8-1.8,1.8S170.7,18.8,170.7,17.8z"/>
    <path fill="#FFFFFF" d="M176,12c0-4.6,3.5-7.6,7.8-7.6c3.1,0,5,1.5,6.1,3.3l-2.6,1.4c-0.7-1-1.9-1.9-3.5-1.9c-2.7,0-4.6,2-4.6,4.8
        s1.9,4.8,4.6,4.8c1.3,0,2.5-0.6,3.1-1.1v-1.8H183v-2.7h7v5.6c-1.5,1.7-3.6,2.8-6.2,2.8C179.5,19.6,176,16.6,176,12z"/>
    <path fill="#FFFFFF" d="M191.8,14c0-3,2.1-5.6,5.6-5.6S203,11,203,14s-2.1,5.6-5.6,5.6C193.9,19.6,191.8,17,191.8,14z M200.2,14
        c0-1.7-1-3.1-2.7-3.1s-2.7,1.4-2.7,3.1s1,3.1,2.7,3.1S200.2,15.7,200.2,14z"/>
    <path fill="#FFFFFF" d="M207.9,19.3l-4.3-10.6h3l2.8,7.4l2.8-7.4h3l-4.3,10.6H207.9z"/>
</g>
<polygon fill="#FFFFFF" points="12.6,1.3 15.7,7.6 22.6,8.6 17.6,13.5 18.8,20.4 12.6,17.1 6.4,20.4 7.6,13.5 2.6,8.6 9.5,7.6 "/>
</svg>
