<?xml version="1.0" encoding="utf-8"?>
<!-- Generator: Adobe Illustrator 18.1.1, SVG Export Plug-In . SVG Version: 6.00 Build 0)  -->
<svg version="1.1" id="Layer_1" xmlns="http://www.w3.org/2000/svg" xmlns:xlink="http://www.w3.org/1999/xlink" x="0px" y="0px"
	 width="38.9px" height="60px" viewBox="0 0 38.9 60" enable-background="new 0 0 38.9 60" xml:space="preserve">
<g>
	<path fill="#FFFFFF" d="M19.5,58.5c2.8,0,5.3-1.2,6.4-2.9H13C14.2,57.3,16.6,58.5,19.5,58.5z M19.5,0C8.7,0,0,8.7,0,19.5
		C0,26.7,5.1,32,8.5,37.8C9.3,39.2,9.9,43,9.9,43h19.2c0,0,0.6-3.8,1.4-5.2c3.4-5.8,8.5-11.1,8.5-18.3C38.9,8.7,30.2,0,19.5,0z
		 M31.1,22.9c-3.4,4.5-5.4,10-6.1,16.3L25,39.8h-2.7l0.1-0.7c0.5-5.1,1.9-9.7,4-13.7h0l-0.3,0c-0.8-0.1-1.9-0.3-3-1.3
		c-1,0.8-2.1,1.3-3.3,1.3c-1.4,0-2.7-0.5-3.8-1.6c-1.2,0.9-2.5,1.4-3.7,1.3c3,6.1,3.7,12.2,3.8,14l0.1,0.7h-2.6l0-0.6
		c-0.2-2.2-1.1-9.9-5.5-16.3l0,0l-0.2-0.2c0,0,0-0.1-0.1-0.1l0-0.1c-0.3-0.6-0.1-1.3,0.4-1.7c0.6-0.4,1.5-0.3,1.8,0.3v0
		c0.7,0.8,1.4,1.2,2.2,1.3c0.9,0.1,2-0.4,3.2-1.4c0.2-0.2,0.6-0.4,0.9-0.4c0.4,0,0.8,0.2,1,0.5c0.9,1,1.8,1.6,2.6,1.6
		c1.1,0,1.9-0.8,2.4-1.5c0.2-0.3,0.6-0.5,1-0.5c0.4,0,0.8,0.2,1.1,0.6c0.4,0.6,1,1.3,2,1.3h0c1,0,2-0.5,2.8-1.5
		c0.5-0.5,1.3-0.6,1.8-0.2C31.5,21.5,31.6,22.3,31.1,22.9z"/>
</g>
<g>
	<path fill="#57A6DB" d="M28.5,50H10.4c-0.9,0-1.6,0.8-1.6,1.8c0,1,0.7,1.8,1.6,1.8h18.1c0.9,0,1.6-0.8,1.6-1.8
		C30.1,50.8,29.4,50,28.5,50z M28.5,44.8H10.4c-0.9,0-1.6,0.8-1.6,1.8c0,1,0.7,1.8,1.6,1.8h18.1c0.9,0,1.6-0.8,1.6-1.8
		C30.1,45.6,29.4,44.8,28.5,44.8z"/>
</g>
</svg>
